<svg width="185" height="11" viewBox="0 0 185 11" fill="none" xmlns="http://www.w3.org/2000/svg">
<path d="M19.99 8H15.85V1H16.68V7.26H19.99V8ZM21.106 3H21.906V8H21.106V3ZM20.936 1.48C20.936 1.32667 20.986 1.19667 21.086 1.09C21.1927 0.976666 21.326 0.92 21.486 0.92C21.646 0.92 21.7827 0.976666 21.896 1.09C22.0093 1.19667 22.066 1.32667 22.066 1.48C22.066 1.63333 22.0093 1.76 21.896 1.86C21.7827 1.96 21.646 2.01 21.486 2.01C21.326 2.01 21.1927 1.96 21.086 1.86C20.986 1.76 20.936 1.63333 20.936 1.48ZM24.8718 5.75H24.4118V8H23.6118V1H24.4118V5.26L24.8218 5.12L26.3718 3H27.3018L25.7718 5.01L25.3618 5.34L25.8618 5.74L27.5318 8H26.5418L24.8718 5.75ZM31.9298 7.6C31.7298 7.76 31.4764 7.88667 31.1698 7.98C30.8698 8.07333 30.5498 8.12 30.2098 8.12C29.8298 8.12 29.4998 8.06 29.2198 7.94C28.9398 7.81333 28.7098 7.63667 28.5298 7.41C28.3498 7.17667 28.2164 6.9 28.1298 6.58C28.0431 6.26 27.9998 5.9 27.9998 5.5C27.9998 4.64667 28.1898 3.99667 28.5698 3.55C28.9498 3.10333 29.4931 2.88 30.1998 2.88C30.4264 2.88 30.6531 2.90667 30.8798 2.96C31.1064 3.00667 31.3098 3.1 31.4898 3.24C31.6698 3.38 31.8164 3.58 31.9298 3.84C32.0431 4.09333 32.0998 4.43 32.0998 4.85C32.0998 5.07 32.0798 5.31333 32.0398 5.58H28.8298C28.8298 5.87333 28.8598 6.13333 28.9198 6.36C28.9798 6.58667 29.0731 6.78 29.1998 6.94C29.3264 7.09333 29.4898 7.21333 29.6898 7.3C29.8964 7.38 30.1464 7.42 30.4398 7.42C30.6664 7.42 30.8931 7.38 31.1198 7.3C31.3464 7.22 31.5164 7.12667 31.6298 7.02L31.9298 7.6ZM30.2098 3.58C29.8164 3.58 29.4998 3.68333 29.2598 3.89C29.0264 4.09667 28.8864 4.45 28.8398 4.95H31.3198C31.3198 4.44333 31.2231 4.09 31.0298 3.89C30.8364 3.68333 30.5631 3.58 30.2098 3.58Z" fill="#111111"/>
<path d="M1.4754 3.44263H0V8.36062H1.4754V3.44263Z" fill="#111111"/>
<path d="M8.36058 2.9508H5.90158V0.4918C5.90158 0.361366 5.84977 0.236275 5.75754 0.144045C5.66531 0.0518144 5.54022 0 5.40978 0H4.91798L2.7859 2.64381C2.57436 2.90614 2.45899 3.23298 2.45898 3.56997V7.377C2.45898 7.63786 2.56261 7.88805 2.74707 8.07251C2.93153 8.25697 3.18172 8.3606 3.44258 8.3606H6.60722C6.88256 8.3606 7.1524 8.28355 7.38623 8.13817C7.62006 7.99279 7.80853 7.78487 7.93035 7.53795L9.34418 4.6721V3.9344C9.34418 3.67353 9.24055 3.42335 9.05609 3.23889C8.87163 3.05443 8.62145 2.9508 8.36058 2.9508Z" fill="#111111"/>
<path d="M80.85 1.07C81.1033 1.02333 81.3933 0.986666 81.72 0.959999C82.0533 0.933333 82.3567 0.92 82.63 0.92C82.9367 0.92 83.2267 0.953333 83.5 1.02C83.78 1.08667 84.0233 1.19667 84.23 1.35C84.4433 1.50333 84.6133 1.70333 84.74 1.95C84.8667 2.19667 84.93 2.49667 84.93 2.85C84.93 3.39667 84.78 3.84 84.48 4.18C84.18 4.52 83.8 4.74667 83.34 4.86L83.82 5.23L85.56 8H84.59L82.66 4.98L81.68 4.83V8H80.85V1.07ZM82.65 1.64C82.5633 1.64 82.4733 1.64 82.38 1.64C82.2867 1.64 82.1967 1.64333 82.11 1.65C82.0233 1.65667 81.94 1.66333 81.86 1.67C81.7867 1.67667 81.7267 1.68667 81.68 1.7V4.28H82.46C82.92 4.28 83.3 4.16667 83.6 3.94C83.9 3.71333 84.05 3.36 84.05 2.88C84.05 2.52 83.9267 2.22333 83.68 1.99C83.4333 1.75667 83.09 1.64 82.65 1.64ZM89.8888 7.6C89.6888 7.76 89.4354 7.88667 89.1288 7.98C88.8288 8.07333 88.5088 8.12 88.1688 8.12C87.7888 8.12 87.4588 8.06 87.1788 7.94C86.8988 7.81333 86.6688 7.63667 86.4888 7.41C86.3088 7.17667 86.1754 6.9 86.0888 6.58C86.0021 6.26 85.9588 5.9 85.9588 5.5C85.9588 4.64667 86.1488 3.99667 86.5288 3.55C86.9088 3.10333 87.4521 2.88 88.1588 2.88C88.3854 2.88 88.6121 2.90667 88.8388 2.96C89.0654 3.00667 89.2688 3.1 89.4488 3.24C89.6288 3.38 89.7754 3.58 89.8888 3.84C90.0021 4.09333 90.0588 4.43 90.0588 4.85C90.0588 5.07 90.0388 5.31333 89.9988 5.58H86.7887C86.7887 5.87333 86.8188 6.13333 86.8788 6.36C86.9388 6.58667 87.0321 6.78 87.1588 6.94C87.2854 7.09333 87.4488 7.21333 87.6488 7.3C87.8554 7.38 88.1054 7.42 88.3988 7.42C88.6254 7.42 88.8521 7.38 89.0788 7.3C89.3054 7.22 89.4754 7.12667 89.5888 7.02L89.8888 7.6ZM88.1688 3.58C87.7754 3.58 87.4588 3.68333 87.2188 3.89C86.9854 4.09667 86.8454 4.45 86.7988 4.95H89.2788C89.2788 4.44333 89.1821 4.09 88.9888 3.89C88.7954 3.68333 88.5221 3.58 88.1688 3.58ZM91.3169 3H91.8669L92.0169 3.6H92.0569C92.2102 3.36667 92.4069 3.19 92.6469 3.07C92.8935 2.94333 93.1735 2.88 93.4869 2.88C94.1535 2.88 94.6502 3.07667 94.9769 3.47C95.3035 3.86333 95.4669 4.50667 95.4669 5.4C95.4669 5.82 95.4102 6.2 95.2969 6.54C95.1902 6.87333 95.0369 7.15667 94.8369 7.39C94.6369 7.62333 94.3935 7.80333 94.1069 7.93C93.8269 8.05667 93.5135 8.12 93.1669 8.12C92.9202 8.12 92.7235 8.10333 92.5769 8.07C92.4369 8.04333 92.2835 7.99333 92.1169 7.92V10H91.3169V3ZM93.3369 3.58C92.9969 3.58 92.7269 3.67 92.5269 3.85C92.3335 4.02333 92.1969 4.29 92.1169 4.65V7.13C92.2369 7.22333 92.3735 7.29667 92.5269 7.35C92.6802 7.39667 92.8835 7.42 93.1369 7.42C93.5969 7.42 93.9602 7.25 94.2269 6.91C94.5002 6.56333 94.6369 6.05667 94.6369 5.39C94.6369 5.11667 94.6135 4.87 94.5669 4.65C94.5202 4.42333 94.4435 4.23333 94.3369 4.08C94.2369 3.92 94.1035 3.79667 93.9369 3.71C93.7769 3.62333 93.5769 3.58 93.3369 3.58ZM97.617 6.77C97.617 7.00333 97.657 7.17 97.737 7.27C97.817 7.37 97.9304 7.42 98.077 7.42C98.1637 7.42 98.257 7.41333 98.357 7.4C98.457 7.38667 98.5704 7.35667 98.697 7.31L98.787 7.94C98.6804 7.99333 98.5304 8.03667 98.337 8.07C98.1504 8.10333 97.987 8.12 97.847 8.12C97.547 8.12 97.3004 8.03667 97.107 7.87C96.9137 7.69667 96.817 7.40667 96.817 7V1H97.617V6.77ZM101.117 6.24L101.397 7.2H101.447L101.667 6.23L102.637 3H103.447L101.967 7.49C101.854 7.81667 101.74 8.13333 101.627 8.44C101.52 8.74667 101.4 9.02 101.267 9.26C101.134 9.5 100.984 9.69 100.817 9.83C100.65 9.97667 100.457 10.05 100.237 10.05C99.997 10.05 99.8003 10.0167 99.647 9.95L99.787 9.26C99.8736 9.29333 99.957 9.31 100.037 9.31C100.224 9.31 100.404 9.21 100.577 9.01C100.75 8.81667 100.894 8.48 101.007 8L98.997 3H99.917L101.117 6.24Z" fill="#111111"/>
<path d="M74.1475 8.3606C74.1475 8.3606 73.0792 2.32239 67.6448 2.32239V0L63 4.1803L67.6448 8.08191V5.40245C70.5942 5.40245 72.6089 5.66082 74.1475 8.3606Z" fill="#111111"/>
<path d="M164.01 6.22C164.01 5.94 163.927 5.71333 163.76 5.54C163.593 5.36 163.383 5.20333 163.13 5.07C162.883 4.93 162.613 4.8 162.32 4.68C162.027 4.56 161.753 4.41667 161.5 4.25C161.253 4.07667 161.047 3.86667 160.88 3.62C160.713 3.36667 160.63 3.04667 160.63 2.66C160.63 2.11333 160.82 1.68 161.2 1.36C161.58 1.04 162.12 0.88 162.82 0.88C163.227 0.88 163.597 0.91 163.93 0.97C164.263 1.03 164.523 1.10667 164.71 1.2L164.46 1.93C164.307 1.85667 164.08 1.78667 163.78 1.72C163.487 1.65333 163.153 1.62 162.78 1.62C162.34 1.62 162.01 1.72 161.79 1.92C161.57 2.11333 161.46 2.34333 161.46 2.61C161.46 2.87 161.543 3.08667 161.71 3.26C161.877 3.43333 162.083 3.59 162.33 3.73C162.583 3.86333 162.857 3.99667 163.15 4.13C163.443 4.26333 163.713 4.42 163.96 4.6C164.213 4.77333 164.423 4.98333 164.59 5.23C164.757 5.47667 164.84 5.78333 164.84 6.15C164.84 6.45 164.787 6.72 164.68 6.96C164.573 7.2 164.417 7.40667 164.21 7.58C164.003 7.75333 163.753 7.88667 163.46 7.98C163.167 8.07333 162.833 8.12 162.46 8.12C161.96 8.12 161.547 8.08 161.22 8C160.893 7.92667 160.64 7.84333 160.46 7.75L160.74 7C160.893 7.08667 161.12 7.17333 161.42 7.26C161.72 7.34 162.057 7.38 162.43 7.38C162.65 7.38 162.857 7.36 163.05 7.32C163.243 7.27333 163.41 7.20333 163.55 7.11C163.69 7.01 163.8 6.88667 163.88 6.74C163.967 6.59333 164.01 6.42 164.01 6.22ZM169.293 8V5.15C169.293 4.89 169.276 4.66333 169.243 4.47C169.216 4.27 169.163 4.10667 169.083 3.98C169.003 3.84667 168.893 3.74667 168.753 3.68C168.619 3.61333 168.443 3.58 168.223 3.58C167.909 3.58 167.626 3.68333 167.373 3.89C167.119 4.09 166.956 4.35 166.883 4.67V8H166.083V1H166.883V3.56H166.923C167.096 3.35333 167.303 3.19 167.543 3.07C167.789 2.94333 168.093 2.88 168.453 2.88C168.733 2.88 168.976 2.91333 169.183 2.98C169.389 3.04 169.559 3.15 169.693 3.31C169.833 3.47 169.933 3.68667 169.993 3.96C170.059 4.22667 170.093 4.56667 170.093 4.98V8H169.293ZM171.471 3.37C171.725 3.21667 172.018 3.10333 172.351 3.03C172.691 2.95667 173.045 2.92 173.411 2.92C173.758 2.92 174.035 2.96667 174.241 3.06C174.455 3.15333 174.615 3.27667 174.721 3.43C174.835 3.57667 174.908 3.74 174.941 3.92C174.981 4.1 175.001 4.28 175.001 4.46C175.001 4.86 174.991 5.25 174.971 5.63C174.951 6.01 174.941 6.37 174.941 6.71C174.941 6.95667 174.951 7.19 174.971 7.41C174.991 7.63 175.028 7.83333 175.081 8.02H174.491L174.281 7.32H174.231C174.171 7.41333 174.095 7.50667 174.001 7.6C173.915 7.68667 173.808 7.76667 173.681 7.84C173.555 7.90667 173.408 7.96333 173.241 8.01C173.075 8.05667 172.885 8.08 172.671 8.08C172.458 8.08 172.258 8.04667 172.071 7.98C171.891 7.91333 171.735 7.82 171.601 7.7C171.468 7.57333 171.361 7.42333 171.281 7.25C171.208 7.07667 171.171 6.88 171.171 6.66C171.171 6.36667 171.231 6.12333 171.351 5.93C171.471 5.73 171.638 5.57333 171.851 5.46C172.071 5.34 172.331 5.25667 172.631 5.21C172.938 5.15667 173.275 5.13 173.641 5.13C173.735 5.13 173.825 5.13 173.911 5.13C174.005 5.13 174.098 5.13667 174.191 5.15C174.211 4.95 174.221 4.77 174.221 4.61C174.221 4.24333 174.148 3.98667 174.001 3.84C173.855 3.69333 173.588 3.62 173.201 3.62C173.088 3.62 172.965 3.63 172.831 3.65C172.705 3.66333 172.571 3.68667 172.431 3.72C172.298 3.74667 172.168 3.78333 172.041 3.83C171.921 3.87 171.815 3.91667 171.721 3.97L171.471 3.37ZM172.891 7.38C173.078 7.38 173.245 7.35667 173.391 7.31C173.538 7.25667 173.665 7.19333 173.771 7.12C173.878 7.04 173.965 6.95333 174.031 6.86C174.105 6.76667 174.158 6.67667 174.191 6.59V5.76C174.098 5.75333 174.001 5.75 173.901 5.75C173.808 5.74333 173.715 5.74 173.621 5.74C173.415 5.74 173.211 5.75333 173.011 5.78C172.818 5.8 172.645 5.84333 172.491 5.91C172.345 5.97 172.225 6.05667 172.131 6.17C172.045 6.27667 172.001 6.41333 172.001 6.58C172.001 6.81333 172.085 7.00667 172.251 7.16C172.418 7.30667 172.631 7.38 172.891 7.38ZM178.872 3.77C178.672 3.70333 178.482 3.67 178.302 3.67C178.016 3.67 177.789 3.75 177.622 3.91C177.456 4.06333 177.352 4.26 177.312 4.5V8H176.512V3H177.072L177.222 3.61H177.262C177.389 3.38333 177.539 3.21 177.712 3.09C177.892 2.96333 178.119 2.9 178.392 2.9C178.586 2.9 178.802 2.93333 179.042 3L178.872 3.77ZM183.561 7.6C183.361 7.76 183.107 7.88667 182.801 7.98C182.501 8.07333 182.181 8.12 181.841 8.12C181.461 8.12 181.131 8.06 180.851 7.94C180.571 7.81333 180.341 7.63667 180.161 7.41C179.981 7.17667 179.847 6.9 179.761 6.58C179.674 6.26 179.631 5.9 179.631 5.5C179.631 4.64667 179.821 3.99667 180.201 3.55C180.581 3.10333 181.124 2.88 181.831 2.88C182.057 2.88 182.284 2.90667 182.511 2.96C182.737 3.00667 182.941 3.1 183.121 3.24C183.301 3.38 183.447 3.58 183.561 3.84C183.674 4.09333 183.731 4.43 183.731 4.85C183.731 5.07 183.711 5.31333 183.671 5.58H180.461C180.461 5.87333 180.491 6.13333 180.551 6.36C180.611 6.58667 180.704 6.78 180.831 6.94C180.957 7.09333 181.121 7.21333 181.321 7.3C181.527 7.38 181.777 7.42 182.071 7.42C182.297 7.42 182.524 7.38 182.751 7.3C182.977 7.22 183.147 7.12667 183.261 7.02L183.561 7.6ZM181.841 3.58C181.447 3.58 181.131 3.68333 180.891 3.89C180.657 4.09667 180.517 4.45 180.471 4.95H182.951C182.951 4.44333 182.854 4.09 182.661 3.89C182.467 3.68333 182.194 3.58 181.841 3.58Z" fill="#111111"/>
<path d="M153 2C153.552 2 154 1.5525 154 1C154 0.4475 153.552 0 153 0C152.448 0 152 0.4475 152 1C152 1.072 152.009 1.1415 152.023 1.209L147.75 3.3455C147.567 3.1355 147.301 3 147 3C146.447 3 146 3.4475 146 4C146 4.5525 146.447 5 147 5C147.301 5 147.567 4.8645 147.75 4.6545L152.023 6.7905C152.008 6.8585 152 6.928 152 7C152 7.5525 152.448 8 153 8C153.552 8 154 7.5525 154 7C154 6.4475 153.552 6 153 6C152.7 6 152.433 6.1355 152.249 6.3455L147.977 4.209C147.992 4.1415 148 4.072 148 4C148 3.928 147.992 3.8585 147.977 3.791L152.25 1.655C152.433 1.8645 152.7 2 153 2Z" fill="#111111"/>
</svg>
