<svg width="186" height="15" viewBox="0 0 186 15" fill="none" xmlns="http://www.w3.org/2000/svg">
<path d="M21.19 2.2H26.524V3.236H22.352V6.582H26.244V7.618H22.352V12H21.19V2.2ZM28.1984 5.518C28.5531 5.30333 28.9638 5.14467 29.4304 5.042C29.9064 4.93933 30.4011 4.888 30.9144 4.888C31.3998 4.888 31.7871 4.95333 32.0764 5.084C32.3751 5.21467 32.5991 5.38733 32.7484 5.602C32.9071 5.80733 33.0098 6.036 33.0564 6.288C33.1124 6.54 33.1404 6.792 33.1404 7.044C33.1404 7.604 33.1264 8.15 33.0984 8.682C33.0704 9.214 33.0564 9.718 33.0564 10.194C33.0564 10.5393 33.0704 10.866 33.0984 11.174C33.1264 11.482 33.1778 11.7667 33.2524 12.028H32.4264L32.1324 11.048H32.0624C31.9784 11.1787 31.8711 11.3093 31.7404 11.44C31.6191 11.5613 31.4698 11.6733 31.2924 11.776C31.1151 11.8693 30.9098 11.9487 30.6764 12.014C30.4431 12.0793 30.1771 12.112 29.8784 12.112C29.5798 12.112 29.2998 12.0653 29.0384 11.972C28.7864 11.8787 28.5671 11.748 28.3804 11.58C28.1938 11.4027 28.0444 11.1927 27.9324 10.95C27.8298 10.7073 27.7784 10.432 27.7784 10.124C27.7784 9.71333 27.8624 9.37267 28.0304 9.102C28.1984 8.822 28.4318 8.60267 28.7304 8.444C29.0384 8.276 29.4024 8.15933 29.8224 8.094C30.2518 8.01933 30.7231 7.982 31.2364 7.982C31.3671 7.982 31.4931 7.982 31.6144 7.982C31.7451 7.982 31.8758 7.99133 32.0064 8.01C32.0344 7.73 32.0484 7.478 32.0484 7.254C32.0484 6.74067 31.9458 6.38133 31.7404 6.176C31.5351 5.97067 31.1618 5.868 30.6204 5.868C30.4618 5.868 30.2891 5.882 30.1024 5.91C29.9251 5.92867 29.7384 5.96133 29.5424 6.008C29.3558 6.04533 29.1738 6.09667 28.9964 6.162C28.8284 6.218 28.6791 6.28333 28.5484 6.358L28.1984 5.518ZM30.1864 11.132C30.4478 11.132 30.6811 11.0993 30.8864 11.034C31.0918 10.9593 31.2691 10.8707 31.4184 10.768C31.5678 10.656 31.6891 10.5347 31.7824 10.404C31.8851 10.2733 31.9598 10.1473 32.0064 10.026V8.864C31.8758 8.85467 31.7404 8.85 31.6004 8.85C31.4698 8.84067 31.3391 8.836 31.2084 8.836C30.9191 8.836 30.6344 8.85467 30.3544 8.892C30.0838 8.92 29.8411 8.98067 29.6264 9.074C29.4211 9.158 29.2531 9.27933 29.1224 9.438C29.0011 9.58733 28.9404 9.77867 28.9404 10.012C28.9404 10.3387 29.0571 10.6093 29.2904 10.824C29.5238 11.0293 29.8224 11.132 30.1864 11.132ZM40.0297 11.538C39.7497 11.7433 39.4184 11.8973 39.0357 12C38.6531 12.112 38.2517 12.168 37.8317 12.168C37.2904 12.168 36.8331 12.084 36.4597 11.916C36.0864 11.7387 35.7784 11.4913 35.5357 11.174C35.3024 10.8473 35.1297 10.46 35.0177 10.012C34.9151 9.55467 34.8637 9.05067 34.8637 8.5C34.8637 7.31467 35.1251 6.40933 35.6477 5.784C36.1704 5.14933 36.9217 4.832 37.9017 4.832C38.3497 4.832 38.7277 4.86933 39.0357 4.944C39.3531 5.00933 39.6377 5.10733 39.8897 5.238L39.5677 6.204C39.3531 6.08267 39.1151 5.98933 38.8537 5.924C38.5924 5.84933 38.3124 5.812 38.0137 5.812C36.6884 5.812 36.0257 6.708 36.0257 8.5C36.0257 8.85467 36.0584 9.19533 36.1237 9.522C36.1984 9.83933 36.3151 10.124 36.4737 10.376C36.6417 10.6187 36.8564 10.8147 37.1177 10.964C37.3884 11.1133 37.7197 11.188 38.1117 11.188C38.4477 11.188 38.7464 11.1367 39.0077 11.034C39.2784 10.9313 39.4977 10.8147 39.6657 10.684L40.0297 11.538ZM46.354 11.44C46.074 11.664 45.7193 11.8413 45.29 11.972C44.87 12.1027 44.422 12.168 43.946 12.168C43.414 12.168 42.952 12.084 42.56 11.916C42.168 11.7387 41.846 11.4913 41.594 11.174C41.342 10.8473 41.1553 10.46 41.034 10.012C40.9127 9.564 40.852 9.06 40.852 8.5C40.852 7.30533 41.118 6.39533 41.65 5.77C42.182 5.14467 42.9427 4.832 43.932 4.832C44.2493 4.832 44.5667 4.86933 44.884 4.944C45.2013 5.00933 45.486 5.14 45.738 5.336C45.99 5.532 46.1953 5.812 46.354 6.176C46.5127 6.53067 46.592 7.002 46.592 7.59C46.592 7.898 46.564 8.23867 46.508 8.612H42.014C42.014 9.02267 42.056 9.38667 42.14 9.704C42.224 10.0213 42.3547 10.292 42.532 10.516C42.7093 10.7307 42.938 10.8987 43.218 11.02C43.5073 11.132 43.8573 11.188 44.268 11.188C44.5853 11.188 44.9027 11.132 45.22 11.02C45.5373 10.908 45.7753 10.7773 45.934 10.628L46.354 11.44ZM43.946 5.812C43.3953 5.812 42.952 5.95667 42.616 6.246C42.2893 6.53533 42.0933 7.03 42.028 7.73H45.5C45.5 7.02067 45.3647 6.526 45.094 6.246C44.8233 5.95667 44.4407 5.812 43.946 5.812ZM48.3534 2.2H49.4734V5.686H49.5294C49.7441 5.41533 50.0147 5.20533 50.3414 5.056C50.6774 4.90667 51.0414 4.832 51.4334 4.832C52.3387 4.832 53.0154 5.12133 53.4634 5.7C53.9207 6.27867 54.1494 7.17467 54.1494 8.388C54.1494 9.61067 53.8507 10.5393 53.2534 11.174C52.6561 11.8087 51.8161 12.126 50.7334 12.126C50.2107 12.126 49.7347 12.07 49.3054 11.958C48.8854 11.846 48.5681 11.7247 48.3534 11.594V2.2ZM51.2374 5.812C50.7707 5.812 50.3927 5.94267 50.1034 6.204C49.8141 6.46533 49.6041 6.834 49.4734 7.31V10.838C49.6507 10.9407 49.8654 11.02 50.1174 11.076C50.3694 11.1227 50.6307 11.146 50.9014 11.146C51.5361 11.146 52.0401 10.922 52.4134 10.474C52.7961 10.026 52.9874 9.326 52.9874 8.374C52.9874 8.01 52.9547 7.66933 52.8894 7.352C52.8241 7.03467 52.7214 6.764 52.5814 6.54C52.4414 6.316 52.2594 6.13867 52.0354 6.008C51.8207 5.87733 51.5547 5.812 51.2374 5.812ZM55.5219 8.5C55.5219 7.31467 55.7833 6.40933 56.3059 5.784C56.8379 5.14933 57.5986 4.832 58.5879 4.832C59.1106 4.832 59.5633 4.92067 59.9459 5.098C60.3379 5.266 60.6599 5.51333 60.9119 5.84C61.1639 6.15733 61.3506 6.54467 61.4719 7.002C61.5933 7.45 61.6539 7.94933 61.6539 8.5C61.6539 9.68533 61.3879 10.5953 60.8559 11.23C60.3333 11.8553 59.5773 12.168 58.5879 12.168C58.0653 12.168 57.6079 12.084 57.2159 11.916C56.8333 11.7387 56.5159 11.4913 56.2639 11.174C56.0119 10.8473 55.8253 10.46 55.7039 10.012C55.5826 9.55467 55.5219 9.05067 55.5219 8.5ZM56.6839 8.5C56.6839 8.85467 56.7166 9.19533 56.7819 9.522C56.8566 9.84867 56.9686 10.1333 57.1179 10.376C57.2673 10.6187 57.4633 10.8147 57.7059 10.964C57.9486 11.1133 58.2426 11.188 58.5879 11.188C59.8573 11.1973 60.4919 10.3013 60.4919 8.5C60.4919 8.136 60.4546 7.79067 60.3799 7.464C60.3146 7.13733 60.2073 6.85267 60.0579 6.61C59.9086 6.36733 59.7126 6.176 59.4699 6.036C59.2273 5.88667 58.9333 5.812 58.5879 5.812C57.3186 5.80267 56.6839 6.69867 56.6839 8.5ZM63.0278 8.5C63.0278 7.31467 63.2891 6.40933 63.8118 5.784C64.3438 5.14933 65.1045 4.832 66.0938 4.832C66.6165 4.832 67.0691 4.92067 67.4518 5.098C67.8438 5.266 68.1658 5.51333 68.4178 5.84C68.6698 6.15733 68.8565 6.54467 68.9778 7.002C69.0991 7.45 69.1598 7.94933 69.1598 8.5C69.1598 9.68533 68.8938 10.5953 68.3618 11.23C67.8391 11.8553 67.0831 12.168 66.0938 12.168C65.5711 12.168 65.1138 12.084 64.7218 11.916C64.3391 11.7387 64.0218 11.4913 63.7698 11.174C63.5178 10.8473 63.3311 10.46 63.2098 10.012C63.0885 9.55467 63.0278 9.05067 63.0278 8.5ZM64.1898 8.5C64.1898 8.85467 64.2225 9.19533 64.2878 9.522C64.3625 9.84867 64.4745 10.1333 64.6238 10.376C64.7731 10.6187 64.9691 10.8147 65.2118 10.964C65.4545 11.1133 65.7485 11.188 66.0938 11.188C67.3631 11.1973 67.9978 10.3013 67.9978 8.5C67.9978 8.136 67.9605 7.79067 67.8858 7.464C67.8205 7.13733 67.7131 6.85267 67.5638 6.61C67.4145 6.36733 67.2185 6.176 66.9758 6.036C66.7331 5.88667 66.4391 5.812 66.0938 5.812C64.8245 5.80267 64.1898 6.69867 64.1898 8.5ZM72.6897 8.85H72.0457V12H70.9257V2.2H72.0457V8.164L72.6197 7.968L74.7897 5H76.0917L73.9497 7.814L73.3757 8.276L74.0757 8.836L76.4137 12H75.0277L72.6897 8.85ZM87.3175 11.594C87.0375 11.8087 86.6828 11.958 86.2535 12.042C85.8241 12.126 85.3668 12.168 84.8815 12.168C84.2935 12.168 83.7428 12.07 83.2295 11.874C82.7161 11.6687 82.2681 11.3607 81.8855 10.95C81.5028 10.5393 81.1995 10.0167 80.9755 9.382C80.7515 8.738 80.6395 7.97733 80.6395 7.1C80.6395 6.18533 80.7608 5.41067 81.0035 4.776C81.2555 4.132 81.5821 3.60933 81.9835 3.208C82.3941 2.79733 82.8515 2.49867 83.3555 2.312C83.8595 2.12533 84.3728 2.032 84.8955 2.032C85.4555 2.032 85.9128 2.06467 86.2675 2.13C86.6221 2.186 86.9255 2.26533 87.1775 2.368L86.8975 3.39C86.4495 3.17533 85.8101 3.068 84.9795 3.068C84.5968 3.068 84.2188 3.138 83.8455 3.278C83.4721 3.418 83.1361 3.64667 82.8375 3.964C82.5481 4.28133 82.3148 4.69667 82.1375 5.21C81.9601 5.72333 81.8715 6.35333 81.8715 7.1C81.8715 7.772 81.9555 8.36 82.1235 8.864C82.2915 9.368 82.5201 9.788 82.8095 10.124C83.1081 10.46 83.4535 10.712 83.8455 10.88C84.2468 11.048 84.6808 11.132 85.1475 11.132C85.5675 11.132 85.9315 11.09 86.2395 11.006C86.5568 10.922 86.8228 10.8147 87.0375 10.684L87.3175 11.594ZM88.0473 8.5C88.0473 7.31467 88.3087 6.40933 88.8313 5.784C89.3633 5.14933 90.124 4.832 91.1133 4.832C91.636 4.832 92.0887 4.92067 92.4713 5.098C92.8633 5.266 93.1853 5.51333 93.4373 5.84C93.6893 6.15733 93.876 6.54467 93.9973 7.002C94.1187 7.45 94.1793 7.94933 94.1793 8.5C94.1793 9.68533 93.9133 10.5953 93.3813 11.23C92.8587 11.8553 92.1027 12.168 91.1133 12.168C90.5907 12.168 90.1333 12.084 89.7413 11.916C89.3587 11.7387 89.0413 11.4913 88.7893 11.174C88.5373 10.8473 88.3507 10.46 88.2293 10.012C88.108 9.55467 88.0473 9.05067 88.0473 8.5ZM89.2093 8.5C89.2093 8.85467 89.242 9.19533 89.3073 9.522C89.382 9.84867 89.494 10.1333 89.6433 10.376C89.7927 10.6187 89.9887 10.8147 90.2313 10.964C90.474 11.1133 90.768 11.188 91.1133 11.188C92.3827 11.1973 93.0173 10.3013 93.0173 8.5C93.0173 8.136 92.98 7.79067 92.9053 7.464C92.84 7.13733 92.7327 6.85267 92.5833 6.61C92.434 6.36733 92.238 6.176 91.9953 6.036C91.7527 5.88667 91.4587 5.812 91.1133 5.812C89.844 5.80267 89.2093 6.69867 89.2093 8.5ZM100.047 12V8.038C100.047 7.66467 100.029 7.34267 99.9912 7.072C99.9632 6.792 99.9025 6.55867 99.8092 6.372C99.7159 6.18533 99.5805 6.04533 99.4032 5.952C99.2352 5.85867 99.0112 5.812 98.7312 5.812C98.3019 5.812 97.9425 5.94267 97.6532 6.204C97.3732 6.46533 97.1772 6.792 97.0652 7.184V12H95.9452V5H96.7292L96.9392 5.854H96.9952C97.2472 5.55533 97.5365 5.31267 97.8632 5.126C98.1992 4.93 98.6332 4.832 99.1652 4.832C99.6132 4.832 99.9772 4.92067 100.257 5.098C100.547 5.266 100.771 5.56467 100.929 5.994C101.144 5.63 101.438 5.34533 101.811 5.14C102.194 4.93467 102.623 4.832 103.099 4.832C103.491 4.832 103.823 4.87867 104.093 4.972C104.364 5.056 104.588 5.21 104.765 5.434C104.943 5.658 105.069 5.96133 105.143 6.344C105.227 6.72667 105.269 7.212 105.269 7.8V12H104.149V7.786C104.149 7.45 104.131 7.16067 104.093 6.918C104.065 6.666 104 6.46067 103.897 6.302C103.804 6.134 103.669 6.01267 103.491 5.938C103.323 5.854 103.099 5.812 102.819 5.812C102.353 5.812 101.989 5.94267 101.727 6.204C101.466 6.46533 101.279 6.83867 101.167 7.324V12H100.047ZM111.409 12V8.038C111.409 7.66467 111.39 7.34267 111.353 7.072C111.325 6.792 111.264 6.55867 111.171 6.372C111.077 6.18533 110.942 6.04533 110.765 5.952C110.597 5.85867 110.373 5.812 110.093 5.812C109.663 5.812 109.304 5.94267 109.015 6.204C108.735 6.46533 108.539 6.792 108.427 7.184V12H107.307V5H108.091L108.301 5.854H108.357C108.609 5.55533 108.898 5.31267 109.225 5.126C109.561 4.93 109.995 4.832 110.527 4.832C110.975 4.832 111.339 4.92067 111.619 5.098C111.908 5.266 112.132 5.56467 112.291 5.994C112.505 5.63 112.799 5.34533 113.173 5.14C113.555 4.93467 113.985 4.832 114.461 4.832C114.853 4.832 115.184 4.87867 115.455 4.972C115.725 5.056 115.949 5.21 116.127 5.434C116.304 5.658 116.43 5.96133 116.505 6.344C116.589 6.72667 116.631 7.212 116.631 7.8V12H115.511V7.786C115.511 7.45 115.492 7.16067 115.455 6.918C115.427 6.666 115.361 6.46067 115.259 6.302C115.165 6.134 115.03 6.01267 114.853 5.938C114.685 5.854 114.461 5.812 114.181 5.812C113.714 5.812 113.35 5.94267 113.089 6.204C112.827 6.46533 112.641 6.83867 112.529 7.324V12H111.409ZM123.778 11.44C123.498 11.664 123.143 11.8413 122.714 11.972C122.294 12.1027 121.846 12.168 121.37 12.168C120.838 12.168 120.376 12.084 119.984 11.916C119.592 11.7387 119.27 11.4913 119.018 11.174C118.766 10.8473 118.579 10.46 118.458 10.012C118.337 9.564 118.276 9.06 118.276 8.5C118.276 7.30533 118.542 6.39533 119.074 5.77C119.606 5.14467 120.367 4.832 121.356 4.832C121.673 4.832 121.991 4.86933 122.308 4.944C122.625 5.00933 122.91 5.14 123.162 5.336C123.414 5.532 123.619 5.812 123.778 6.176C123.937 6.53067 124.016 7.002 124.016 7.59C124.016 7.898 123.988 8.23867 123.932 8.612H119.438C119.438 9.02267 119.48 9.38667 119.564 9.704C119.648 10.0213 119.779 10.292 119.956 10.516C120.133 10.7307 120.362 10.8987 120.642 11.02C120.931 11.132 121.281 11.188 121.692 11.188C122.009 11.188 122.327 11.132 122.644 11.02C122.961 10.908 123.199 10.7773 123.358 10.628L123.778 11.44ZM121.37 5.812C120.819 5.812 120.376 5.95667 120.04 6.246C119.713 6.53533 119.517 7.03 119.452 7.73H122.924C122.924 7.02067 122.789 6.526 122.518 6.246C122.247 5.95667 121.865 5.812 121.37 5.812ZM130.271 12V8.01C130.271 7.282 130.164 6.736 129.949 6.372C129.744 5.99867 129.361 5.812 128.801 5.812C128.307 5.812 127.896 5.94733 127.569 6.218C127.252 6.47933 127.028 6.81067 126.897 7.212V12H125.777V5H126.561L126.771 5.854H126.827C127.051 5.55533 127.35 5.31267 127.723 5.126C128.106 4.93 128.559 4.832 129.081 4.832C129.464 4.832 129.8 4.87867 130.089 4.972C130.379 5.056 130.617 5.21 130.803 5.434C130.999 5.658 131.144 5.96133 131.237 6.344C131.34 6.71733 131.391 7.19333 131.391 7.772V12H130.271ZM132.509 5H133.601V3.614L134.721 3.292V5H136.625V5.98H134.721V9.858C134.721 10.3433 134.782 10.6887 134.903 10.894C135.025 11.09 135.23 11.188 135.519 11.188C135.762 11.188 135.967 11.1647 136.135 11.118C136.303 11.062 136.49 10.992 136.695 10.908L136.947 11.762C136.695 11.8833 136.42 11.9813 136.121 12.056C135.823 12.1307 135.501 12.168 135.155 12.168C134.586 12.168 134.185 12.0093 133.951 11.692C133.718 11.3653 133.601 10.824 133.601 10.068V5.98H132.509V5ZM141.258 10.096C141.258 9.816 141.174 9.59667 141.006 9.438C140.838 9.27933 140.628 9.14867 140.376 9.046C140.133 8.934 139.862 8.83133 139.564 8.738C139.274 8.63533 139.004 8.50933 138.752 8.36C138.509 8.20133 138.304 8.00067 138.136 7.758C137.968 7.51533 137.884 7.18867 137.884 6.778C137.884 6.106 138.075 5.616 138.458 5.308C138.84 4.99067 139.372 4.832 140.054 4.832C140.558 4.832 140.978 4.87867 141.314 4.972C141.659 5.056 141.958 5.15867 142.21 5.28L141.944 6.204C141.729 6.10133 141.468 6.01267 141.16 5.938C140.861 5.854 140.539 5.812 140.194 5.812C139.783 5.812 139.48 5.882 139.284 6.022C139.097 6.162 139.004 6.40467 139.004 6.75C139.004 6.99267 139.088 7.184 139.256 7.324C139.424 7.45467 139.629 7.576 139.872 7.688C140.124 7.79067 140.394 7.89333 140.684 7.996C140.982 8.09867 141.253 8.234 141.496 8.402C141.748 8.57 141.958 8.78467 142.126 9.046C142.294 9.298 142.378 9.634 142.378 10.054C142.378 10.3527 142.326 10.6327 142.224 10.894C142.13 11.1553 141.981 11.3793 141.776 11.566C141.57 11.7527 141.314 11.8973 141.006 12C140.707 12.112 140.352 12.168 139.942 12.168C139.41 12.168 138.957 12.1167 138.584 12.014C138.21 11.9113 137.898 11.79 137.646 11.65L137.982 10.698C138.196 10.8193 138.476 10.9313 138.822 11.034C139.167 11.1367 139.517 11.188 139.872 11.188C140.273 11.188 140.604 11.1087 140.866 10.95C141.127 10.7913 141.258 10.5067 141.258 10.096ZM147.915 2.298C148.269 2.214 148.652 2.158 149.063 2.13C149.473 2.102 149.879 2.088 150.281 2.088C150.71 2.088 151.144 2.13 151.583 2.214C152.031 2.298 152.437 2.452 152.801 2.676C153.165 2.9 153.459 3.208 153.683 3.6C153.916 3.992 154.033 4.49133 154.033 5.098C154.033 5.69533 153.925 6.19933 153.711 6.61C153.496 7.02067 153.211 7.35667 152.857 7.618C152.502 7.87 152.096 8.052 151.639 8.164C151.181 8.276 150.71 8.332 150.225 8.332C150.178 8.332 150.099 8.332 149.987 8.332C149.884 8.332 149.772 8.332 149.651 8.332C149.539 8.32267 149.427 8.31333 149.315 8.304C149.203 8.29467 149.123 8.28533 149.077 8.276V12H147.915V2.298ZM150.309 3.096C150.066 3.096 149.833 3.10067 149.609 3.11C149.385 3.11933 149.207 3.14267 149.077 3.18V7.24C149.123 7.25867 149.198 7.27267 149.301 7.282C149.403 7.282 149.511 7.28667 149.623 7.296C149.735 7.296 149.842 7.296 149.945 7.296C150.047 7.296 150.122 7.296 150.169 7.296C150.486 7.296 150.799 7.268 151.107 7.212C151.424 7.14667 151.709 7.03467 151.961 6.876C152.213 6.71733 152.413 6.49333 152.563 6.204C152.721 5.91467 152.801 5.546 152.801 5.098C152.801 4.71533 152.726 4.398 152.577 4.146C152.437 3.88467 152.245 3.67933 152.003 3.53C151.769 3.37133 151.503 3.25933 151.205 3.194C150.906 3.12867 150.607 3.096 150.309 3.096ZM156.869 10.278C156.869 10.6047 156.925 10.838 157.037 10.978C157.149 11.118 157.308 11.188 157.513 11.188C157.634 11.188 157.765 11.1787 157.905 11.16C158.045 11.1413 158.204 11.0993 158.381 11.034L158.507 11.916C158.358 11.9907 158.148 12.0513 157.877 12.098C157.616 12.1447 157.387 12.168 157.191 12.168C156.771 12.168 156.426 12.0513 156.155 11.818C155.884 11.5753 155.749 11.1693 155.749 10.6V2.2H156.869V10.278ZM160.719 5V8.99C160.719 9.354 160.737 9.676 160.775 9.956C160.821 10.2267 160.896 10.4553 160.999 10.642C161.101 10.8193 161.241 10.9547 161.419 11.048C161.596 11.1413 161.82 11.188 162.091 11.188C162.343 11.188 162.567 11.1507 162.763 11.076C162.959 10.992 163.131 10.88 163.281 10.74C163.439 10.6 163.575 10.4413 163.687 10.264C163.808 10.0773 163.906 9.88133 163.981 9.676V5H165.101V10.012C165.101 10.348 165.11 10.698 165.129 11.062C165.157 11.4167 165.199 11.7293 165.255 12H164.485L164.205 10.894H164.135C163.92 11.258 163.631 11.5613 163.267 11.804C162.903 12.0467 162.441 12.168 161.881 12.168C161.507 12.168 161.176 12.1213 160.887 12.028C160.607 11.944 160.369 11.79 160.173 11.566C159.986 11.342 159.841 11.0433 159.739 10.67C159.645 10.2873 159.599 9.80667 159.599 9.228V5H160.719ZM172.62 12.322C172.62 13.2273 172.377 13.8947 171.892 14.324C171.416 14.7533 170.706 14.968 169.764 14.968C169.204 14.968 168.751 14.9307 168.406 14.856C168.07 14.7907 167.78 14.702 167.538 14.59L167.832 13.638C168.046 13.722 168.284 13.8013 168.546 13.876C168.807 13.9507 169.148 13.988 169.568 13.988C169.96 13.988 170.277 13.9507 170.52 13.876C170.772 13.8107 170.972 13.694 171.122 13.526C171.271 13.3673 171.374 13.1573 171.43 12.896C171.486 12.644 171.514 12.3407 171.514 11.986V11.314H171.458C171.271 11.5847 171.033 11.7947 170.744 11.944C170.454 12.084 170.076 12.154 169.61 12.154C168.667 12.154 167.972 11.86 167.524 11.272C167.085 10.684 166.866 9.76933 166.866 8.528C166.866 7.33333 167.15 6.428 167.72 5.812C168.289 5.18667 169.129 4.874 170.24 4.874C170.772 4.874 171.224 4.916 171.598 5C171.98 5.084 172.321 5.182 172.62 5.294V12.322ZM169.806 11.174C170.282 11.174 170.655 11.0573 170.926 10.824C171.196 10.5813 171.388 10.208 171.5 9.704V6.12C171.126 5.94267 170.65 5.854 170.072 5.854C169.437 5.854 168.938 6.06867 168.574 6.498C168.21 6.92733 168.028 7.59933 168.028 8.514C168.028 8.906 168.06 9.26533 168.126 9.592C168.191 9.91867 168.294 10.1987 168.434 10.432C168.574 10.6653 168.756 10.8473 168.98 10.978C169.204 11.1087 169.479 11.174 169.806 11.174ZM175.015 5H176.135V12H175.015V5ZM174.777 2.872C174.777 2.65733 174.847 2.47533 174.987 2.326C175.137 2.16733 175.323 2.088 175.547 2.088C175.771 2.088 175.963 2.16733 176.121 2.326C176.28 2.47533 176.359 2.65733 176.359 2.872C176.359 3.08667 176.28 3.264 176.121 3.404C175.963 3.544 175.771 3.614 175.547 3.614C175.323 3.614 175.137 3.544 174.987 3.404C174.847 3.264 174.777 3.08667 174.777 2.872ZM183.017 12V8.01C183.017 7.282 182.91 6.736 182.695 6.372C182.49 5.99867 182.107 5.812 181.547 5.812C181.053 5.812 180.642 5.94733 180.315 6.218C179.998 6.47933 179.774 6.81067 179.643 7.212V12H178.523V5H179.307L179.517 5.854H179.573C179.797 5.55533 180.096 5.31267 180.469 5.126C180.852 4.93 181.305 4.832 181.827 4.832C182.21 4.832 182.546 4.87867 182.835 4.972C183.125 5.056 183.363 5.21 183.549 5.434C183.745 5.658 183.89 5.96133 183.983 6.344C184.086 6.71733 184.137 7.19333 184.137 7.772V12H183.017Z" fill="#3B5998"/>
<g clip-path="url(#clip0_0_1027)">
<path d="M14 13.125C14 13.608 13.608 14 13.125 14H0.875C0.392 14 0 13.608 0 13.125V0.875C0 0.392 0.392 0 0.875 0H13.125C13.608 0 14 0.392 14 0.875V13.125Z" fill="#3B5998"/>
<path d="M9.625 14V8.75H11.375L11.8125 6.5625H9.625V5.6875C9.625 4.8125 10.0634 4.375 10.9375 4.375H11.8125V2.1875C11.375 2.1875 10.8325 2.1875 10.0625 2.1875C8.45469 2.1875 7.4375 3.44794 7.4375 5.25V6.5625H5.6875V8.75H7.4375V14H9.625Z" fill="white"/>
</g>
<defs>
<clipPath id="clip0_0_1027">
<rect width="14" height="14" fill="white"/>
</clipPath>
</defs>
</svg>
