<svg width="95" height="16" viewBox="0 0 95 16" fill="none" xmlns="http://www.w3.org/2000/svg">
<path d="M18.204 9.372L18.492 10.644H18.504L18.816 9.348L20.844 3.6H21.84L18.66 12.132H18.216L14.976 3.6H16.068L18.204 9.372ZM25.8329 11.52C25.5929 11.712 25.2889 11.864 24.9209 11.976C24.5609 12.088 24.1769 12.144 23.7689 12.144C23.3129 12.144 22.9169 12.072 22.5809 11.928C22.2449 11.776 21.9689 11.564 21.7529 11.292C21.5369 11.012 21.3769 10.68 21.2729 10.296C21.1689 9.912 21.1169 9.48 21.1169 9C21.1169 7.976 21.3449 7.196 21.8009 6.66C22.2569 6.124 22.9089 5.856 23.7569 5.856C24.0289 5.856 24.3009 5.888 24.5729 5.952C24.8449 6.008 25.0889 6.12 25.3049 6.288C25.5209 6.456 25.6969 6.696 25.8329 7.008C25.9689 7.312 26.0369 7.716 26.0369 8.22C26.0369 8.484 26.0129 8.776 25.9649 9.096H22.1129C22.1129 9.448 22.1489 9.76 22.2209 10.032C22.2929 10.304 22.4049 10.536 22.5569 10.728C22.7089 10.912 22.9049 11.056 23.1449 11.16C23.3929 11.256 23.6929 11.304 24.0449 11.304C24.3169 11.304 24.5889 11.256 24.8609 11.16C25.1329 11.064 25.3369 10.952 25.4729 10.824L25.8329 11.52ZM23.7689 6.696C23.2969 6.696 22.9169 6.82 22.6289 7.068C22.3489 7.316 22.1809 7.74 22.1249 8.34H25.1009C25.1009 7.732 24.9849 7.308 24.7529 7.068C24.5209 6.82 24.1929 6.696 23.7689 6.696ZM29.7787 6.924C29.5387 6.844 29.3107 6.804 29.0947 6.804C28.7507 6.804 28.4787 6.9 28.2787 7.092C28.0787 7.276 27.9547 7.512 27.9067 7.8V12H26.9467V6H27.6187L27.7987 6.732H27.8467C27.9987 6.46 28.1787 6.252 28.3867 6.108C28.6027 5.956 28.8747 5.88 29.2027 5.88C29.4347 5.88 29.6947 5.92 29.9827 6L29.7787 6.924ZM30.6288 6H31.5888V12H30.6288V6ZM30.4248 4.176C30.4248 3.992 30.4848 3.836 30.6048 3.708C30.7328 3.572 30.8928 3.504 31.0848 3.504C31.2768 3.504 31.4408 3.572 31.5768 3.708C31.7128 3.836 31.7808 3.992 31.7808 4.176C31.7808 4.36 31.7128 4.512 31.5768 4.632C31.4408 4.752 31.2768 4.812 31.0848 4.812C30.8928 4.812 30.7328 4.752 30.6048 4.632C30.4848 4.512 30.4248 4.36 30.4248 4.176ZM37.6557 6V12H36.6957V6.84H34.2717V12H33.3117V6.84H32.3757V6H33.3117V5.664C33.3117 4.912 33.4957 4.368 33.8637 4.032C34.2397 3.688 34.7877 3.516 35.5077 3.516C35.9797 3.516 36.3997 3.564 36.7677 3.66C37.1357 3.748 37.4237 3.856 37.6317 3.984L37.3077 4.752C37.0917 4.616 36.8357 4.516 36.5397 4.452C36.2437 4.388 35.9277 4.356 35.5917 4.356C35.2957 4.356 35.0597 4.392 34.8837 4.464C34.7157 4.528 34.5837 4.632 34.4877 4.776C34.3997 4.912 34.3397 5.084 34.3077 5.292C34.2837 5.5 34.2717 5.736 34.2717 6H37.6557ZM43.2962 11.52C43.0562 11.712 42.7522 11.864 42.3842 11.976C42.0242 12.088 41.6402 12.144 41.2322 12.144C40.7762 12.144 40.3802 12.072 40.0442 11.928C39.7082 11.776 39.4322 11.564 39.2162 11.292C39.0002 11.012 38.8402 10.68 38.7362 10.296C38.6322 9.912 38.5802 9.48 38.5802 9C38.5802 7.976 38.8082 7.196 39.2642 6.66C39.7202 6.124 40.3722 5.856 41.2202 5.856C41.4922 5.856 41.7642 5.888 42.0362 5.952C42.3082 6.008 42.5522 6.12 42.7682 6.288C42.9842 6.456 43.1602 6.696 43.2962 7.008C43.4322 7.312 43.5002 7.716 43.5002 8.22C43.5002 8.484 43.4762 8.776 43.4282 9.096H39.5762C39.5762 9.448 39.6122 9.76 39.6842 10.032C39.7562 10.304 39.8682 10.536 40.0202 10.728C40.1722 10.912 40.3682 11.056 40.6082 11.16C40.8562 11.256 41.1562 11.304 41.5082 11.304C41.7802 11.304 42.0522 11.256 42.3242 11.16C42.5962 11.064 42.8002 10.952 42.9362 10.824L43.2962 11.52ZM41.2322 6.696C40.7602 6.696 40.3802 6.82 40.0922 7.068C39.8122 7.316 39.6442 7.74 39.5882 8.34H42.5642C42.5642 7.732 42.4482 7.308 42.2162 7.068C41.9842 6.82 41.6562 6.696 41.2322 6.696ZM49.0179 9.936C49.0179 10.344 49.0219 10.716 49.0299 11.052C49.0379 11.38 49.0739 11.704 49.1379 12.024H48.4899L48.2499 11.172H48.2019C48.0419 11.452 47.8099 11.684 47.5059 11.868C47.2019 12.052 46.8459 12.144 46.4379 12.144C45.6379 12.144 45.0419 11.892 44.6499 11.388C44.2659 10.884 44.0739 10.096 44.0739 9.024C44.0739 8 44.3139 7.224 44.7939 6.696C45.2819 6.16 45.9499 5.892 46.7979 5.892C47.0939 5.892 47.3259 5.908 47.4939 5.94C47.6699 5.972 47.8579 6.024 48.0579 6.096V3.6H49.0179V9.936ZM46.5939 11.304C47.0019 11.304 47.3259 11.2 47.5659 10.992C47.8059 10.776 47.9699 10.452 48.0579 10.02V7.044C47.9139 6.932 47.7499 6.852 47.5659 6.804C47.3819 6.756 47.1379 6.732 46.8339 6.732C46.2819 6.732 45.8499 6.916 45.5379 7.284C45.2259 7.644 45.0699 8.224 45.0699 9.024C45.0699 9.352 45.0939 9.656 45.1419 9.936C45.1979 10.216 45.2859 10.456 45.4059 10.656C45.5259 10.856 45.6819 11.016 45.8739 11.136C46.0739 11.248 46.3139 11.304 46.5939 11.304ZM56.9582 11.604C56.7182 11.78 56.4342 11.912 56.1062 12C55.7782 12.096 55.4342 12.144 55.0742 12.144C54.6102 12.144 54.2182 12.072 53.8982 11.928C53.5782 11.776 53.3142 11.564 53.1062 11.292C52.9062 11.012 52.7582 10.68 52.6622 10.296C52.5742 9.904 52.5302 9.472 52.5302 9C52.5302 7.984 52.7542 7.208 53.2022 6.672C53.6502 6.128 54.2942 5.856 55.1342 5.856C55.5182 5.856 55.8422 5.888 56.1062 5.952C56.3782 6.008 56.6222 6.092 56.8382 6.204L56.5622 7.032C56.3782 6.928 56.1742 6.848 55.9502 6.792C55.7262 6.728 55.4862 6.696 55.2302 6.696C54.0942 6.696 53.5262 7.464 53.5262 9C53.5262 9.304 53.5542 9.596 53.6102 9.876C53.6742 10.148 53.7742 10.392 53.9102 10.608C54.0542 10.816 54.2382 10.984 54.4622 11.112C54.6942 11.24 54.9782 11.304 55.3142 11.304C55.6022 11.304 55.8582 11.26 56.0822 11.172C56.3142 11.084 56.5022 10.984 56.6462 10.872L56.9582 11.604ZM58.5442 6V9.42C58.5442 9.732 58.5602 10.008 58.5922 10.248C58.6322 10.48 58.6962 10.676 58.7842 10.836C58.8722 10.988 58.9922 11.104 59.1442 11.184C59.2962 11.264 59.4882 11.304 59.7202 11.304C59.9362 11.304 60.1282 11.272 60.2962 11.208C60.4642 11.136 60.6122 11.04 60.7402 10.92C60.8762 10.8 60.9922 10.664 61.0882 10.512C61.1922 10.352 61.2762 10.184 61.3402 10.008V6H62.3002V10.296C62.3002 10.584 62.3082 10.884 62.3242 11.196C62.3482 11.5 62.3842 11.768 62.4322 12H61.7722L61.5322 11.052H61.4722C61.2882 11.364 61.0402 11.624 60.7282 11.832C60.4162 12.04 60.0202 12.144 59.5402 12.144C59.2202 12.144 58.9362 12.104 58.6882 12.024C58.4482 11.952 58.2442 11.82 58.0762 11.628C57.9162 11.436 57.7922 11.18 57.7042 10.86C57.6242 10.532 57.5842 10.12 57.5842 9.624V6H58.5442ZM66.189 10.368C66.189 10.128 66.117 9.94 65.973 9.804C65.829 9.668 65.649 9.556 65.433 9.468C65.225 9.372 64.993 9.284 64.737 9.204C64.489 9.116 64.257 9.008 64.041 8.88C63.833 8.744 63.657 8.572 63.513 8.364C63.369 8.156 63.297 7.876 63.297 7.524C63.297 6.948 63.461 6.528 63.789 6.264C64.117 5.992 64.573 5.856 65.157 5.856C65.589 5.856 65.949 5.896 66.237 5.976C66.533 6.048 66.789 6.136 67.005 6.24L66.777 7.032C66.593 6.944 66.369 6.868 66.105 6.804C65.849 6.732 65.573 6.696 65.277 6.696C64.925 6.696 64.665 6.756 64.497 6.876C64.337 6.996 64.257 7.204 64.257 7.5C64.257 7.708 64.329 7.872 64.473 7.992C64.617 8.104 64.793 8.208 65.001 8.304C65.217 8.392 65.449 8.48 65.697 8.568C65.953 8.656 66.185 8.772 66.393 8.916C66.609 9.06 66.789 9.244 66.933 9.468C67.077 9.684 67.149 9.972 67.149 10.332C67.149 10.588 67.105 10.828 67.017 11.052C66.937 11.276 66.809 11.468 66.633 11.628C66.457 11.788 66.237 11.912 65.973 12C65.717 12.096 65.413 12.144 65.061 12.144C64.605 12.144 64.217 12.1 63.897 12.012C63.577 11.924 63.309 11.82 63.093 11.7L63.381 10.884C63.565 10.988 63.805 11.084 64.101 11.172C64.397 11.26 64.697 11.304 65.001 11.304C65.345 11.304 65.629 11.236 65.853 11.1C66.077 10.964 66.189 10.72 66.189 10.368ZM67.2078 6H68.1438V4.812L69.1038 4.536V6H70.7358V6.84H69.1038V10.164C69.1038 10.58 69.1558 10.876 69.2598 11.052C69.3638 11.22 69.5398 11.304 69.7878 11.304C69.9958 11.304 70.1718 11.284 70.3158 11.244C70.4598 11.196 70.6198 11.136 70.7958 11.064L71.0118 11.796C70.7958 11.9 70.5598 11.984 70.3038 12.048C70.0478 12.112 69.7718 12.144 69.4758 12.144C68.9878 12.144 68.6438 12.008 68.4438 11.736C68.2438 11.456 68.1438 10.992 68.1438 10.344V6.84H67.2078V6ZM71.0013 9C71.0013 7.984 71.2253 7.208 71.6733 6.672C72.1293 6.128 72.7813 5.856 73.6293 5.856C74.0773 5.856 74.4653 5.932 74.7933 6.084C75.1293 6.228 75.4053 6.44 75.6213 6.72C75.8373 6.992 75.9973 7.324 76.1013 7.716C76.2053 8.1 76.2573 8.528 76.2573 9C76.2573 10.016 76.0293 10.796 75.5733 11.34C75.1253 11.876 74.4773 12.144 73.6293 12.144C73.1813 12.144 72.7893 12.072 72.4533 11.928C72.1253 11.776 71.8533 11.564 71.6373 11.292C71.4213 11.012 71.2613 10.68 71.1573 10.296C71.0533 9.904 71.0013 9.472 71.0013 9ZM71.9973 9C71.9973 9.304 72.0253 9.596 72.0813 9.876C72.1453 10.156 72.2413 10.4 72.3693 10.608C72.4973 10.816 72.6653 10.984 72.8733 11.112C73.0813 11.24 73.3333 11.304 73.6293 11.304C74.7173 11.312 75.2613 10.544 75.2613 9C75.2613 8.688 75.2293 8.392 75.1653 8.112C75.1093 7.832 75.0173 7.588 74.8893 7.38C74.7613 7.172 74.5933 7.008 74.3853 6.888C74.1773 6.76 73.9253 6.696 73.6293 6.696C72.5413 6.688 71.9973 7.456 71.9973 9ZM80.6869 12V8.604C80.6869 8.284 80.6709 8.008 80.6389 7.776C80.6149 7.536 80.5629 7.336 80.4829 7.176C80.4029 7.016 80.2869 6.896 80.1349 6.816C79.9909 6.736 79.7989 6.696 79.5589 6.696C79.1909 6.696 78.8829 6.808 78.6349 7.032C78.3949 7.256 78.2269 7.536 78.1309 7.872V12H77.1709V6H77.8429L78.0229 6.732H78.0709C78.2869 6.476 78.5349 6.268 78.8149 6.108C79.1029 5.94 79.4749 5.856 79.9309 5.856C80.3149 5.856 80.6269 5.932 80.8669 6.084C81.1149 6.228 81.3069 6.484 81.4429 6.852C81.6269 6.54 81.8789 6.296 82.1989 6.12C82.5269 5.944 82.8949 5.856 83.3029 5.856C83.6389 5.856 83.9229 5.896 84.1549 5.976C84.3869 6.048 84.5789 6.18 84.7309 6.372C84.8829 6.564 84.9909 6.824 85.0549 7.152C85.1269 7.48 85.1629 7.896 85.1629 8.4V12H84.2029V8.388C84.2029 8.1 84.1869 7.852 84.1549 7.644C84.1309 7.428 84.0749 7.252 83.9869 7.116C83.9069 6.972 83.7909 6.868 83.6389 6.804C83.4949 6.732 83.3029 6.696 83.0629 6.696C82.6629 6.696 82.3509 6.808 82.1269 7.032C81.9029 7.256 81.7429 7.576 81.6469 7.992V12H80.6869ZM90.6892 11.52C90.4492 11.712 90.1452 11.864 89.7772 11.976C89.4172 12.088 89.0332 12.144 88.6252 12.144C88.1692 12.144 87.7732 12.072 87.4372 11.928C87.1012 11.776 86.8252 11.564 86.6092 11.292C86.3932 11.012 86.2332 10.68 86.1292 10.296C86.0252 9.912 85.9732 9.48 85.9732 9C85.9732 7.976 86.2012 7.196 86.6572 6.66C87.1132 6.124 87.7652 5.856 88.6132 5.856C88.8852 5.856 89.1572 5.888 89.4292 5.952C89.7012 6.008 89.9452 6.12 90.1612 6.288C90.3772 6.456 90.5532 6.696 90.6892 7.008C90.8252 7.312 90.8932 7.716 90.8932 8.22C90.8932 8.484 90.8692 8.776 90.8212 9.096H86.9692C86.9692 9.448 87.0052 9.76 87.0772 10.032C87.1492 10.304 87.2612 10.536 87.4132 10.728C87.5652 10.912 87.7612 11.056 88.0012 11.16C88.2492 11.256 88.5492 11.304 88.9012 11.304C89.1732 11.304 89.4452 11.256 89.7172 11.16C89.9892 11.064 90.1932 10.952 90.3292 10.824L90.6892 11.52ZM88.6252 6.696C88.1532 6.696 87.7732 6.82 87.4852 7.068C87.2052 7.316 87.0372 7.74 86.9812 8.34H89.9572C89.9572 7.732 89.8412 7.308 89.6092 7.068C89.3772 6.82 89.0492 6.696 88.6252 6.696ZM94.6349 6.924C94.3949 6.844 94.1669 6.804 93.9509 6.804C93.6069 6.804 93.3349 6.9 93.1349 7.092C92.9349 7.276 92.8109 7.512 92.7629 7.8V12H91.8029V6H92.4749L92.6549 6.732H92.7029C92.8549 6.46 93.0349 6.252 93.2429 6.108C93.4589 5.956 93.7309 5.88 94.0589 5.88C94.2909 5.88 94.5509 5.92 94.8389 6L94.6349 6.924Z" fill="#018657"/>
<rect x="1.76953" y="5.54541" width="7.38636" height="5.90909" fill="white"/>
<path d="M5.31818 2L0 4.36364V7.90909C0 11.1916 2.26614 14.2525 5.31818 15C8.37023 14.2525 10.6364 11.1916 10.6364 7.90909V4.36364L5.31818 2ZM4.13636 11.4545L1.77273 9.09091L2.60886 8.25477L4.13636 9.78227L8.0275 5.89114L8.86364 6.72727L4.13636 11.4545Z" fill="#018657"/>
</svg>
